
        <svg xmlns="http://www.w3.org/2000/svg" xmlns:xlink="http://www.w3.org/1999/xlink" version="1.1" width="2871.6646076823645" height="3225.7819838964024" viewBox="0 0 2871.6646076823645 3225.7819838964024">
			
			<g transform="scale(11.289099194820107) translate(10, 10)">
				<defs id="SvgjsDefs1467"/><g id="SvgjsG1468" featureKey="rootContainer" transform="matrix(4.725300747626563,0,0,4.725300747626563,0.00003493425602218202,0.01972220666548971)" fill="#fff"><path xmlns="http://www.w3.org/2000/svg" d="M23.11 55.78L1.69 43.41A3.39 3.39 0 0 1 0 40.48V15.75a3.39 3.39 0 0 1 1.69-2.94L23.11.45a3.39 3.39 0 0 1 3.39 0l21.41 12.37a3.39 3.39 0 0 1 1.69 2.94v24.72a3.39 3.39 0 0 1-1.69 2.94L26.5 55.78a3.39 3.39 0 0 1-3.39 0z"/></g><g id="SvgjsG1469" featureKey="symbolFeature-0" transform="matrix(0.8772893486860159,0,0,0.8772893486860159,77.45498357938231,62.520670372832804)" fill="#000000"><polygon xmlns="http://www.w3.org/2000/svg" points="68.95,18.036 65.21,8.302 64.669,6.895 63.538,3.966 2.901,27.269 16.209,38.301 "/><polygon xmlns="http://www.w3.org/2000/svg" points="13.868,41.754 8.608,43.771 7.694,41.401 4.121,42.774 10.022,58.139 13.598,56.764 12.658,54.314   17.916,52.295 "/><path xmlns="http://www.w3.org/2000/svg" d="M80.1,52.051v7.861h-5.49v6.326H53.674c-0.425-0.793-1.055-1.449-1.828-1.902V50.072  c1.98-1.105,3.344-3.201,3.344-5.634c0-0.687-0.138-1.337-0.332-1.956l20.466-7.865l-5.501-14.311L17.206,40.524l5.499,14.312  l20.12-7.73c0.78,1.726,2.306,3.029,4.159,3.545v13.683c-1.435,0.842-2.416,2.387-2.416,4.17c0,2.679,2.169,4.851,4.843,4.851  c1.725,0,3.227-0.908,4.084-2.259h21.113v7.087h5.488v7.854h7V52.051H80.1z"/></g><g id="SvgjsG1470" featureKey="nameFeature-0" transform="matrix(1.454286375355716,0,0,1.454286375355716,37.84524755444254,141.37998054323893)" fill="#000000"><path d="M20.857 17.714 l-10.571 0 l0 4.8571 l14 0 l4.2857 4.2857 l0 8.8571 l-4.2857 4.2857 l-17.143 0 l-4.2857 -4.2857 l0 -4.2857 l5.4286 0 l2.2857 2.2857 l10.571 0 l0 -4.8571 l-14 0 l-4.2857 -4.2857 l0 -8.8571 l4.2857 -4.2857 l17.143 0 l4.2857 4.2857 l0 4.2857 l-5.4286 0 z M35.14281428571429 35.7143 l0 -24.286 l7.4286 0 l0 22.286 l10.286 0 l0 -22.286 l7.4286 0 l0 24.286 l-4.2857 4.2857 l-16.571 0 z M66 40 l0 -5.7143 l2.2857 0 l0 -17.143 l-2.2857 0 l0 -5.7143 l12 0 l0 5.7143 l-2.2857 0 l0 17.143 l2.2857 0 l0 5.7143 l-12 0 z M81.71428285714286 17.714 l0 -6.2857 l24.286 0 l0 6.2857 l-8.4571 0 l0 22.286 l-7.4286 0 l0 -22.286 l-8.4 0 z"/></g>
			</g>
		</svg>
	